<?xml version="1.0" encoding="UTF-8" standalone="no"?>
<!DOCTYPE svg PUBLIC "-//W3C//DTD SVG 1.1//EN" "http://www.w3.org/Graphics/SVG/1.1/DTD/svg11.dtd">
<svg width="100%" height="100%" viewBox="0 0 470 676" version="1.1" xmlns="http://www.w3.org/2000/svg" xmlns:xlink="http://www.w3.org/1999/xlink" xml:space="preserve" xmlns:serif="http://www.serif.com/" style="fill-rule:evenodd;clip-rule:evenodd;stroke-linejoin:round;stroke-miterlimit:2;">
    <g id="ArtBoard1" transform="matrix(1,0,0,1,-1.48376,-2.24532)">
        <rect x="1.484" y="2.245" width="469.344" height="675.155" style="fill:none;"/>
        <g transform="matrix(0.1,0,0,-0.1,0.483756,683.245)">
            <path d="M2175,6704C2130,6679 2092,6641 2052,6580C2033,6550 2008,6518 1998,6510C1989,6502 1978,6484 1976,6470C1974,6456 1971,6445 1970,6445C1969,6445 1962,6411 1955,6370C1942,6296 1923,6208 1901,6120C1895,6095 1888,6064 1886,6050C1882,6033 1864,6015 1828,5993C1799,5976 1759,5947 1740,5930C1714,5908 1722,5911 1770,5943C1863,6006 1876,6009 1844,5960C1829,5938 1813,5920 1808,5920C1803,5920 1772,5905 1741,5886L1683,5852L1671,5885C1665,5903 1648,5922 1633,5929C1610,5940 1599,5937 1546,5910C1479,5875 1435,5838 1415,5800C1405,5781 1383,5768 1328,5751C1219,5716 1145,5683 1076,5641C1043,5620 995,5592 970,5578C945,5564 899,5525 867,5492C792,5413 790,5370 858,5298C882,5272 882,5269 867,5252C834,5215 818,5157 819,5077C819,5016 815,4989 799,4958C787,4935 771,4894 763,4866C744,4801 689,4700 673,4700C666,4700 654,4687 645,4670C627,4636 627,4636 600,4652C568,4672 547,4651 528,4577C519,4541 500,4477 486,4435C472,4392 460,4351 460,4344C460,4332 456,4332 439,4340C424,4349 415,4348 403,4339C391,4328 389,4314 394,4268C399,4229 396,4191 386,4152C377,4121 366,4069 360,4038C349,3984 347,3980 320,3980C291,3980 280,3965 280,3924C280,3911 276,3892 271,3882C257,3856 212,3728 206,3700C198,3660 234,3539 271,3485C355,3362 349,3367 407,3374L459,3380L475,3325C483,3295 503,3255 519,3238C573,3175 626,3049 610,3019C604,3010 598,2971 596,2933C592,2873 594,2858 616,2821C629,2797 640,2766 640,2751C639,2726 639,2726 624,2745C604,2772 583,2848 570,2940C562,2998 554,3019 537,3032C525,3042 510,3050 503,3050C467,3050 484,2776 531,2583C557,2478 628,2298 666,2241C701,2188 730,2180 785,2210C823,2231 831,2232 859,2221C876,2214 906,2188 925,2164C961,2120 990,2107 990,2134C990,2142 958,2220 919,2307C880,2394 839,2485 828,2509L809,2554L792,2520C757,2451 740,2476 740,2598C740,2640 744,2670 750,2670C756,2670 765,2681 770,2695C781,2724 787,2725 815,2705C833,2691 835,2693 848,2737C869,2812 872,2845 874,3005C875,3153 874,3156 845,3214C813,3278 788,3302 771,3285C765,3279 757,3241 754,3201C749,3150 741,3121 729,3109C712,3092 711,3092 696,3114C668,3158 630,3260 630,3292C630,3311 619,3341 605,3362C575,3406 575,3406 598,3412C634,3422 640,3479 614,3580C600,3630 583,3684 575,3700C539,3770 572,3912 627,3924C664,3933 703,3991 691,4021C673,4070 732,4177 780,4182C793,4184 817,4199 832,4216C856,4243 859,4252 851,4273C844,4292 847,4311 865,4356C879,4389 890,4423 890,4434C890,4444 913,4494 941,4544C989,4630 995,4637 1050,4663C1119,4696 1235,4800 1280,4870C1298,4898 1314,4919 1317,4917C1319,4915 1329,4855 1340,4784C1350,4713 1368,4615 1380,4565C1393,4509 1399,4461 1395,4439C1391,4416 1397,4358 1411,4290C1433,4181 1433,4177 1415,4144C1404,4123 1400,4102 1404,4086C1412,4055 1413,4055 1359,4080C1304,4104 1273,4105 1262,4083C1234,4028 1218,3917 1224,3817C1227,3761 1230,3690 1230,3660C1229,3617 1237,3589 1266,3530C1301,3457 1302,3452 1297,3370C1293,3311 1282,3257 1260,3195C1241,3138 1230,3088 1231,3060L1231,2970C1228,2897 1251,2708 1266,2670C1274,2651 1290,2628 1300,2618C1311,2607 1320,2590 1320,2580C1320,2556 1399,2268 1446,2119C1450,2108 1442,2099 1422,2091C1351,2061 1256,1926 1231,1819C1223,1782 1224,1762 1235,1722C1243,1695 1252,1630 1254,1579L1258,1485L1222,1435C1199,1403 1186,1373 1185,1350C1184,1331 1178,1296 1171,1272C1162,1241 1162,1212 1168,1172C1183,1082 1256,842 1290,774C1317,719 1327,709 1370,689C1424,665 1425,663 1411,627C1395,586 1360,372 1366,356C1378,324 1473,293 1640,266C1659,263 1713,238 1759,211C1897,129 2056,113 2189,166C2219,178 2229,188 2234,211C2246,271 2218,304 2120,345C2084,360 2044,382 2030,395C2016,407 1992,425 1975,433C1959,441 1934,460 1921,474C1907,488 1891,500 1883,500C1868,500 1820,572 1820,595C1820,603 1829,619 1840,630C1851,641 1860,663 1860,679C1860,713 2041,987 2133,1093C2227,1201 2285,1284 2304,1335C2343,1444 2362,1468 2425,1483C2465,1493 2478,1502 2490,1527C2509,1565 2546,1566 2585,1530C2610,1506 2650,1433 2650,1411C2650,1387 2699,1293 2724,1271C2759,1238 2778,1254 2761,1302C2754,1320 2745,1372 2741,1416C2733,1502 2696,1597 2646,1663C2631,1682 2620,1701 2620,1707C2620,1712 2609,1723 2596,1730C2565,1746 2557,1766 2571,1792C2585,1818 2574,1860 2554,1860C2543,1860 2540,1866 2544,1878C2571,1959 2601,2055 2616,2108C2625,2142 2637,2170 2642,2170C2647,2170 2664,2161 2679,2149C2741,2103 2781,2147 2806,2290C2813,2332 2824,2378 2830,2394C2846,2437 2881,2670 2875,2691C2871,2703 2874,2712 2883,2716C2909,2726 2912,2799 2891,2906C2880,2960 2865,3024 2856,3047C2846,3077 2844,3092 2852,3096C2867,3105 2856,3223 2826,3374C2813,3440 2799,3534 2796,3582C2787,3692 2767,3771 2735,3818C2721,3838 2710,3864 2710,3875C2709,3886 2703,3906 2695,3920C2678,3950 2676,3984 2691,4008C2700,4022 2699,4034 2686,4059C2663,4103 2644,4108 2597,4081C2575,4068 2561,4063 2564,4069C2568,4075 2566,4080 2561,4080C2532,4080 2556,4111 2609,4144C2642,4164 2671,4189 2675,4199C2683,4224 2662,4306 2644,4321C2636,4327 2630,4347 2630,4366C2630,4384 2623,4420 2614,4445C2595,4501 2603,4544 2637,4573C2650,4585 2680,4622 2703,4655C2725,4688 2754,4730 2766,4748C2779,4766 2798,4809 2810,4845C2831,4908 2855,4934 2867,4904C2870,4896 2868,4884 2863,4879C2847,4863 2891,4789 2912,4796C2925,4800 2936,4788 2956,4748C3023,4615 3131,4484 3223,4421C3263,4394 3322,4350 3355,4322C3428,4260 3518,4206 3585,4184C3612,4175 3647,4157 3661,4144C3695,4111 3738,4101 3826,4102C3867,4102 3906,4098 3912,4092C3919,4086 3958,4074 3998,4064C4040,4054 4070,4042 4070,4034C4070,4027 4083,3987 4099,3945C4133,3856 4186,3792 4244,3769C4288,3751 4308,3715 4309,3649C4310,3597 4344,3558 4383,3562C4401,3564 4420,3575 4432,3591C4451,3617 4451,3617 4425,3680L4399,3743L4435,3773C4471,3802 4472,3805 4466,3850L4460,3897L4521,3903C4625,3912 4633,3946 4539,3973L4495,3986L4484,4055C4475,4111 4467,4128 4444,4148C4428,4161 4386,4199 4351,4231C4315,4263 4280,4290 4273,4290C4257,4290 4256,4302 4271,4317C4280,4326 4269,4350 4231,4412C4176,4501 4172,4516 4194,4545C4206,4561 4201,4576 4150,4674C4081,4805 4010,5010 4010,5075C4010,5104 4001,5139 3984,5172C3970,5200 3958,5239 3958,5259C3958,5313 3695,5920 3671,5920C3652,5920 3659,5829 3691,5628C3716,5474 3728,5423 3752,5376C3768,5344 3779,5309 3777,5298C3774,5287 3790,5239 3816,5187C3870,5072 3910,4928 3914,4830C3917,4754 3927,4725 3976,4650C4008,4599 4013,4575 3995,4556C3983,4544 3982,4536 3990,4521C4005,4492 4003,4490 3969,4507C3949,4517 3927,4520 3904,4515C3862,4508 3841,4519 3776,4585C3723,4638 3703,4644 3625,4632C3579,4624 3559,4625 3539,4636C3503,4654 3429,4740 3432,4759C3433,4768 3426,4787 3416,4802C3398,4829 3398,4830 3418,4847C3437,4863 3438,4870 3430,4915C3423,4948 3412,4972 3396,4985C3382,4996 3362,5026 3351,5053L3331,5100L3380,5148C3439,5205 3442,5228 3401,5283C3365,5330 3331,5357 3297,5365C3265,5373 3265,5376 3290,5435C3316,5496 3316,5560 3290,5593C3262,5628 3180,5654 3090,5655C3023,5656 3010,5660 2969,5688C2944,5705 2918,5726 2911,5734C2905,5741 2898,5791 2896,5846C2890,6009 2861,6064 2785,6058L2745,6055L2738,6100C2732,6141 2713,6194 2666,6302C2657,6322 2653,6346 2656,6354C2659,6362 2655,6382 2647,6397C2639,6412 2627,6439 2620,6455C2613,6472 2604,6492 2599,6500C2594,6508 2584,6529 2576,6546C2561,6580 2463,6670 2441,6670C2434,6670 2413,6679 2396,6690C2350,6718 2216,6727 2175,6704ZM1800,5866C1800,5864 1793,5859 1784,5856C1776,5853 1772,5854 1775,5860C1781,5870 1800,5874 1800,5866ZM2640,4245C2644,4209 2640,4202 2606,4181C2588,4169 2570,4160 2567,4160C2557,4160 2589,4243 2607,4262C2625,4282 2637,4276 2640,4245ZM546,3526C555,3474 546,3460 527,3497C511,3527 513,3560 531,3560C535,3560 542,3544 546,3526ZM857,3008C854,3000 851,3003 851,3014C850,3025 853,3031 856,3027C859,3024 860,3015 857,3008ZM2097,2303C2116,2190 2090,1959 2054,1919C2044,1908 2025,1900 2010,1900C1993,1900 1977,1892 1967,1878C1952,1855 1952,1855 1937,1875C1923,1893 1925,1898 1956,1932C1976,1955 1996,1992 2006,2027C2014,2059 2030,2113 2040,2146C2050,2180 2062,2239 2066,2279C2069,2318 2076,2350 2081,2350C2085,2350 2092,2329 2097,2303ZM1755,1496C1751,1476 1744,1460 1739,1460C1726,1460 1728,1514 1742,1528C1759,1545 1762,1537 1755,1496ZM1660,1367C1679,1333 1696,1300 1698,1293C1700,1287 1685,1246 1666,1203C1647,1160 1624,1099 1614,1067C1597,1010 1580,984 1580,1015C1580,1023 1568,1053 1553,1081C1523,1140 1519,1210 1544,1259C1553,1275 1560,1303 1560,1320C1560,1348 1604,1430 1619,1430C1622,1430 1641,1402 1660,1367Z" style="fill:white;fill-rule:nonzero;"/>
        </g>
    </g>
</svg>
