<?xml version="1.0" standalone="no"?>
<!DOCTYPE svg PUBLIC "-//W3C//DTD SVG 20010904//EN"
 "http://www.w3.org/TR/2001/REC-SVG-20010904/DTD/svg10.dtd">
<svg version="1.0" xmlns="http://www.w3.org/2000/svg"
 width="1280.000000pt" height="683.000000pt" viewBox="0 0 1280.000000 683.000000"
 preserveAspectRatio="xMidYMid meet">
<metadata>
Created by potrace 1.15, written by Peter Selinger 2001-2017
</metadata>
<g transform="translate(0.000000,683.000000) scale(0.100000,-0.100000)"
fill="#000000" stroke="none">
<path d="M2175 6704 c-45 -25 -83 -63 -123 -124 -19 -30 -44 -62 -54 -70 -9
-8 -20 -26 -22 -40 -2 -14 -5 -25 -6 -25 -1 0 -8 -34 -15 -75 -13 -74 -32
-162 -54 -250 -6 -25 -13 -56 -15 -70 -4 -17 -22 -35 -58 -57 -29 -17 -69 -46
-88 -63 -26 -22 -18 -19 30 13 93 63 106 66 74 17 -15 -22 -31 -40 -36 -40 -5
0 -36 -15 -67 -34 l-58 -34 -12 33 c-6 18 -23 37 -38 44 -23 11 -34 8 -87 -19
-67 -35 -111 -72 -131 -110 -10 -19 -32 -32 -87 -49 -109 -35 -183 -68 -252
-110 -33 -21 -81 -49 -106 -63 -25 -14 -71 -53 -103 -86 -75 -79 -77 -122 -9
-194 24 -26 24 -29 9 -46 -33 -37 -49 -95 -48 -175 0 -61 -4 -88 -20 -119 -12
-23 -28 -64 -36 -92 -19 -65 -74 -166 -90 -166 -7 0 -19 -13 -28 -30 -18 -34
-18 -34 -45 -18 -32 20 -53 -1 -72 -75 -9 -36 -28 -100 -42 -142 -14 -43 -26
-84 -26 -91 0 -12 -4 -12 -21 -4 -15 9 -24 8 -36 -1 -12 -11 -14 -25 -9 -71 5
-39 2 -77 -8 -116 -9 -31 -20 -83 -26 -114 -11 -54 -13 -58 -40 -58 -29 0 -40
-15 -40 -56 0 -13 -4 -32 -9 -42 -14 -26 -59 -154 -65 -182 -8 -40 28 -161 65
-215 84 -123 78 -118 136 -111 l52 6 16 -55 c8 -30 28 -70 44 -87 54 -63 107
-189 91 -219 -6 -9 -12 -48 -14 -86 -4 -60 -2 -75 20 -112 13 -24 24 -55 24
-70 -1 -25 -1 -25 -16 -6 -20 27 -41 103 -54 195 -8 58 -16 79 -33 92 -12 10
-27 18 -34 18 -36 0 -19 -274 28 -467 26 -105 97 -285 135 -342 35 -53 64 -61
119 -31 38 21 46 22 74 11 17 -7 47 -33 66 -57 36 -44 65 -57 65 -30 0 8 -32
86 -71 173 -39 87 -80 178 -91 202 l-19 45 -17 -34 c-35 -69 -52 -44 -52 78 0
42 4 72 10 72 6 0 15 11 20 25 11 29 17 30 45 10 18 -14 20 -12 33 32 21 75
24 108 26 268 1 148 0 151 -29 209 -32 64 -57 88 -74 71 -6 -6 -14 -44 -17
-84 -5 -51 -13 -80 -25 -92 -17 -17 -18 -17 -33 5 -28 44 -66 146 -66 178 0
19 -11 49 -25 70 -30 44 -30 44 -7 50 36 10 42 67 16 168 -14 50 -31 104 -39
120 -36 70 -3 212 52 224 37 9 76 67 64 97 -18 49 41 156 89 161 13 2 37 17
52 34 24 27 27 36 19 57 -7 19 -4 38 14 83 14 33 25 67 25 78 0 10 23 60 51
110 48 86 54 93 109 119 69 33 185 137 230 207 18 28 34 49 37 47 2 -2 12 -62
23 -133 10 -71 28 -169 40 -219 13 -56 19 -104 15 -126 -4 -23 2 -81 16 -149
22 -109 22 -113 4 -146 -11 -21 -15 -42 -11 -58 8 -31 9 -31 -45 -6 -55 24
-86 25 -97 3 -28 -55 -44 -166 -38 -266 3 -56 6 -127 6 -157 -1 -43 7 -71 36
-130 35 -73 36 -78 31 -160 -4 -59 -15 -113 -37 -175 -19 -57 -30 -107 -29
-135 0 -25 0 -65 0 -90 -3 -73 20 -262 35 -300 8 -19 24 -42 34 -52 11 -11 20
-28 20 -38 0 -24 79 -312 126 -461 4 -11 -4 -20 -24 -28 -71 -30 -166 -165
-191 -272 -8 -37 -7 -57 4 -97 8 -27 17 -92 19 -143 l4 -94 -36 -50 c-23 -32
-36 -62 -37 -85 -1 -19 -7 -54 -14 -78 -9 -31 -9 -60 -3 -100 15 -90 88 -330
122 -398 27 -55 37 -65 80 -85 54 -24 55 -26 41 -62 -16 -41 -51 -255 -45
-271 12 -32 107 -63 274 -90 19 -3 73 -28 119 -55 138 -82 297 -98 430 -45 30
12 40 22 45 45 12 60 -16 93 -114 134 -36 15 -76 37 -90 50 -14 12 -38 30 -55
38 -16 8 -41 27 -54 41 -14 14 -30 26 -38 26 -15 0 -63 72 -63 95 0 8 9 24 20
35 11 11 20 33 20 49 0 34 181 308 273 414 94 108 152 191 171 242 39 109 58
133 121 148 40 10 53 19 65 44 19 38 56 39 95 3 25 -24 65 -97 65 -119 0 -24
49 -118 74 -140 35 -33 54 -17 37 31 -7 18 -16 70 -20 114 -8 86 -45 181 -95
247 -15 19 -26 38 -26 44 0 5 -11 16 -24 23 -31 16 -39 36 -25 62 14 26 3 68
-17 68 -11 0 -14 6 -10 18 27 81 57 177 72 230 9 34 21 62 26 62 5 0 22 -9 37
-21 62 -46 102 -2 127 141 7 42 18 88 24 104 16 43 51 276 45 297 -4 12 -1 21
8 25 26 10 29 83 8 190 -11 54 -26 118 -35 141 -10 30 -12 45 -4 49 15 9 4
127 -26 278 -13 66 -27 160 -30 208 -9 110 -29 189 -61 236 -14 20 -25 46 -25
57 -1 11 -7 31 -15 45 -17 30 -19 64 -4 88 9 14 8 26 -5 51 -23 44 -42 49 -89
22 -22 -13 -36 -18 -33 -12 4 6 2 11 -3 11 -29 0 -5 31 48 64 33 20 62 45 66
55 8 25 -13 107 -31 122 -8 6 -14 26 -14 45 0 18 -7 54 -16 79 -19 56 -11 99
23 128 13 12 43 49 66 82 22 33 51 75 63 93 13 18 32 61 44 97 21 63 45 89 57
59 3 -8 1 -20 -4 -25 -16 -16 28 -90 49 -83 13 4 24 -8 44 -48 67 -133 175
-264 267 -327 40 -27 99 -71 132 -99 73 -62 163 -116 230 -138 27 -9 62 -27
76 -40 34 -33 77 -43 165 -42 41 0 80 -4 86 -10 7 -6 46 -18 86 -28 42 -10 72
-22 72 -30 0 -7 13 -47 29 -89 34 -89 87 -153 145 -176 44 -18 64 -54 65 -120
1 -52 35 -91 74 -87 18 2 37 13 49 29 19 26 19 26 -7 89 l-26 63 36 30 c36 29
37 32 31 77 l-6 47 61 6 c104 9 112 43 18 70 l-44 13 -11 69 c-9 56 -17 73
-40 93 -16 13 -58 51 -93 83 -36 32 -71 59 -78 59 -16 0 -17 12 -2 27 9 9 -2
33 -40 95 -55 89 -59 104 -37 133 12 16 7 31 -44 129 -69 131 -140 336 -140
401 0 29 -9 64 -26 97 -14 28 -26 67 -26 87 0 54 -263 661 -287 661 -19 0 -12
-91 20 -292 25 -154 37 -205 61 -252 16 -32 27 -67 25 -78 -3 -11 13 -59 39
-111 54 -115 94 -259 98 -357 3 -76 13 -105 62 -180 32 -51 37 -75 19 -94 -12
-12 -13 -20 -5 -35 15 -29 13 -31 -21 -14 -20 10 -42 13 -65 8 -42 -7 -63 4
-128 70 -53 53 -73 59 -151 47 -46 -8 -66 -7 -86 4 -36 18 -110 104 -107 123
1 9 -6 28 -16 43 -18 27 -18 28 2 45 19 16 20 23 12 68 -7 33 -18 57 -34 70
-14 11 -34 41 -45 68 l-20 47 49 48 c59 57 62 80 21 135 -36 47 -70 74 -104
82 -32 8 -32 11 -7 70 26 61 26 125 0 158 -28 35 -110 61 -200 62 -67 1 -80 5
-121 33 -25 17 -51 38 -58 46 -6 7 -13 57 -15 112 -6 163 -35 218 -111 212
l-40 -3 -7 45 c-6 41 -25 94 -72 202 -9 20 -13 44 -10 52 3 8 -1 28 -9 43 -8
15 -20 42 -27 58 -7 17 -16 37 -21 45 -5 8 -15 29 -23 46 -15 34 -113 124
-135 124 -7 0 -28 9 -45 20 -46 28 -180 37 -221 14z m-375 -838 c0 -2 -7 -7
-16 -10 -8 -3 -12 -2 -9 4 6 10 25 14 25 6z m840 -1621 c4 -36 0 -43 -34 -64
-18 -12 -36 -21 -39 -21 -10 0 22 83 40 102 18 20 30 14 33 -17z m-2094 -719
c9 -52 0 -66 -19 -29 -16 30 -14 63 4 63 4 0 11 -16 15 -34z m311 -518 c-3 -8
-6 -5 -6 6 -1 11 2 17 5 13 3 -3 4 -12 1 -19z m1240 -705 c19 -113 -7 -344
-43 -384 -10 -11 -29 -19 -44 -19 -17 0 -33 -8 -43 -22 -15 -23 -15 -23 -30
-3 -14 18 -12 23 19 57 20 23 40 60 50 95 8 32 24 86 34 119 10 34 22 93 26
133 3 39 10 71 15 71 4 0 11 -21 16 -47z m-342 -807 c-4 -20 -11 -36 -16 -36
-13 0 -11 54 3 68 17 17 20 9 13 -32z m-95 -129 c19 -34 36 -67 38 -74 2 -6
-13 -47 -32 -90 -19 -43 -42 -104 -52 -136 -17 -57 -34 -83 -34 -52 0 8 -12
38 -27 66 -30 59 -34 129 -9 178 9 16 16 44 16 61 0 28 44 110 59 110 3 0 22
-28 41 -63z"/>
<path d="M4571 6702 c-6 -11 -15 -38 -19 -59 -7 -34 -11 -38 -35 -35 -24 2
-30 -3 -48 -45 -57 -131 -66 -729 -14 -848 l18 -40 13 30 c13 29 13 29 13 5 1
-46 -19 -164 -29 -174 -6 -6 -10 -53 -11 -106 0 -52 -4 -115 -7 -140 -7 -42
-10 -46 -60 -70 -49 -23 -56 -31 -89 -99 -32 -66 -35 -79 -30 -133 5 -61 24
-104 92 -215 34 -57 41 -63 71 -63 38 0 77 -35 101 -90 21 -49 42 -70 70 -70
17 0 32 -14 58 -55 35 -53 68 -72 78 -42 2 7 14 0 31 -20 17 -20 36 -32 49
-31 12 1 47 -16 77 -37 85 -58 84 -58 210 -14 139 48 159 61 239 144 35 36 65
65 66 63 2 -2 24 -46 50 -98 l48 -95 -11 -65 c-10 -58 -9 -68 8 -96 11 -17 17
-34 13 -38 -4 -3 6 -19 21 -35 16 -16 25 -34 22 -39 -10 -17 4 -40 38 -60 35
-21 42 -58 18 -100 -9 -15 -11 -38 -7 -66 10 -61 -6 -65 -70 -17 -61 46 -79
50 -96 20 -14 -28 -6 -68 30 -144 37 -76 37 -78 21 -148 -11 -47 -19 -61 -43
-73 -31 -17 -57 -67 -57 -112 0 -41 -38 -123 -67 -147 -20 -17 -27 -35 -36
-102 -10 -76 -13 -85 -59 -138 -65 -76 -100 -139 -103 -183 -2 -20 -12 -64
-24 -96 -12 -33 -21 -80 -21 -106 0 -26 -7 -67 -15 -90 -35 -100 -3 -145 74
-105 28 14 29 13 34 -13 20 -100 19 -154 -3 -237 -21 -80 -24 -84 -46 -79 -19
5 -26 1 -32 -17 -7 -19 -17 -23 -65 -25 -38 -2 -75 -13 -114 -33 -62 -31 -92
-59 -141 -132 -17 -25 -42 -53 -56 -63 -34 -22 -33 -36 2 -36 30 0 70 22 122
70 90 80 180 88 180 16 0 -16 9 -39 20 -51 17 -18 19 -27 10 -49 -5 -15 -15
-148 -20 -294 -10 -280 -13 -307 -36 -316 -17 -7 -18 -43 -1 -49 16 -6 -87
-113 -133 -137 -19 -10 -46 -30 -59 -44 -14 -14 -29 -26 -34 -26 -6 0 -25 -11
-43 -25 -18 -14 -36 -25 -41 -25 -4 0 -39 -13 -77 -28 -86 -35 -113 -66 -100
-114 11 -38 31 -46 124 -47 80 -1 156 17 277 63 84 33 102 36 200 37 178 2
184 6 194 138 4 56 13 126 20 155 8 37 8 59 1 72 -6 12 -7 35 -2 59 11 57 18
72 45 89 16 11 27 33 36 71 7 33 30 83 55 120 27 43 48 89 59 137 18 73 51
159 65 168 14 9 14 63 1 110 -7 25 -13 46 -12 48 1 1 -5 15 -13 31 -15 27 -13
35 30 142 71 176 65 168 117 156 41 -9 45 -13 59 -56 18 -58 39 -60 56 -4 13
41 14 41 73 48 33 4 63 5 65 2 3 -3 12 -34 20 -70 17 -72 37 -108 52 -92 11
10 34 174 26 186 -2 3 14 13 36 22 45 17 45 17 55 -38 16 -86 36 -91 69 -17
l17 37 72 1 c88 1 180 24 270 68 l68 33 18 -26 c77 -112 154 -301 181 -441 9
-48 8 -54 -10 -67 -12 -9 -20 -25 -20 -44 0 -24 -6 -32 -30 -40 -27 -10 -30
-15 -30 -55 0 -24 5 -44 10 -44 6 0 10 -11 10 -24 0 -14 5 -28 10 -31 6 -3 10
-33 10 -65 0 -32 5 -71 11 -87 27 -71 71 -256 80 -333 5 -47 16 -102 24 -123
8 -20 15 -56 15 -79 0 -23 9 -54 20 -73 16 -26 18 -39 11 -58 -5 -14 -7 -28
-4 -31 3 -3 -6 -17 -20 -30 -33 -31 -36 -81 -7 -106 18 -16 21 -35 28 -171 l7
-154 38 -18 c20 -10 75 -22 122 -26 79 -8 88 -11 130 -47 115 -97 171 -119
315 -119 118 0 157 14 166 60 9 51 -16 87 -86 124 -60 32 -97 61 -185 149 -24
23 -47 42 -53 42 -5 0 -30 35 -55 78 -40 67 -47 87 -47 133 0 30 -3 145 -6
257 -4 152 -1 225 10 290 34 203 39 270 27 342 -18 110 -15 174 10 196 14 13
19 27 17 46 -4 23 0 29 23 37 44 15 88 -3 154 -64 36 -33 72 -57 92 -61 52
-10 59 4 20 45 -19 20 -44 54 -55 77 -12 22 -37 55 -58 73 -42 37 -162 98
-202 103 -21 2 -28 9 -30 30 -2 15 -16 38 -32 51 -24 21 -31 38 -44 116 -9 50
-16 107 -16 126 0 33 1 34 26 25 35 -14 90 -12 102 2 31 39 -51 413 -119 539
-6 13 -12 39 -13 60 -2 40 -31 88 -98 164 -24 27 -36 49 -32 59 11 29 -7 68
-52 112 -33 33 -44 51 -44 74 0 40 -22 91 -63 149 -19 25 -41 68 -50 95 -14
41 -15 52 -3 75 8 14 22 54 31 89 19 66 11 112 -18 112 -7 0 -37 -25 -67 -55
-58 -59 -70 -65 -70 -37 0 10 -7 28 -16 40 -9 13 -13 29 -10 37 3 8 1 17 -4
20 -6 4 -10 14 -10 23 0 18 71 55 269 138 72 31 119 56 128 71 30 46 55 200
49 301 -4 74 -3 92 8 92 11 0 12 8 6 34 -7 31 -5 35 14 38 26 4 34 59 13 91
-14 22 -33 187 -21 187 3 0 19 -11 36 -25 39 -33 90 -34 123 0 14 13 25 34 25
46 0 46 -73 169 -100 169 -4 0 -24 21 -43 48 l-35 47 34 70 c39 81 44 135 15
164 -22 22 -111 36 -174 28 -50 -7 -105 15 -159 61 -31 28 -36 39 -42 95 -6
64 -37 153 -66 193 -8 11 -27 29 -42 38 -16 10 -28 27 -28 37 0 10 -16 61 -35
115 -19 53 -32 100 -29 106 7 10 -32 114 -51 138 -7 8 -15 24 -19 35 -10 35
-88 100 -146 122 -128 50 -203 36 -276 -52 -21 -26 -51 -59 -65 -74 -25 -25
-62 -114 -52 -125 6 -5 -24 -149 -39 -186 -6 -14 -14 -56 -19 -95 -4 -38 -21
-109 -37 -157 -15 -48 -24 -84 -20 -82 4 3 8 1 8 -5 0 -6 -9 -15 -20 -21 -11
-6 -20 -15 -20 -21 0 -6 4 -8 10 -4 5 3 5 -7 -1 -25 -12 -32 -52 -71 -102 -96
-27 -14 -29 -14 -24 -1 3 9 9 42 13 75 6 53 4 62 -15 81 l-21 21 -48 -24 c-27
-13 -65 -43 -86 -66 -31 -34 -53 -47 -120 -69 -94 -30 -175 -76 -249 -142 -71
-62 -82 -65 -105 -26 -27 45 -161 310 -300 592 -65 132 -153 302 -196 378 -46
82 -75 145 -72 155 3 9 8 80 11 157 5 142 -2 188 -24 147z m79 -609 c0 -7 212
-430 252 -503 20 -36 73 -143 119 -238 l83 -173 -18 -30 c-21 -35 -17 -43 35
-69 24 -13 41 -30 45 -45 8 -32 -12 -82 -47 -118 -28 -27 -47 -95 -41 -144 1
-12 -2 -24 -8 -28 -5 -3 -10 -14 -10 -24 0 -10 -9 -26 -20 -36 -18 -17 -20
-17 -20 -1 0 9 -11 28 -25 42 -14 14 -23 29 -20 34 17 28 -46 65 -152 90 -40
9 -53 16 -53 30 0 24 -31 45 -95 66 -27 9 -51 17 -52 18 -2 1 6 24 16 52 10
27 22 76 26 110 8 70 -5 89 -61 87 -19 -1 -36 3 -39 7 -3 5 -1 48 5 97 21 168
23 203 13 215 -5 7 -9 27 -8 43 1 17 3 50 4 74 1 41 2 43 15 26 13 -18 15 -17
31 20 9 22 19 69 21 105 6 69 21 120 35 120 24 0 -10 114 -58 200 -8 14 -21
41 -30 60 -14 31 -17 33 -23 15 -5 -15 -8 -10 -13 20 -15 92 -6 89 43 -14 28
-57 50 -105 50 -108z m963 -1594 c2 -104 1 -107 -17 -91 -10 9 -43 66 -72 125
l-55 108 18 30 c10 16 23 27 30 25 7 -3 20 9 29 27 l17 31 24 -74 c18 -56 24
-99 26 -181z"/>
<path d="M9217 6703 c-4 -3 -35 -8 -69 -10 -71 -5 -103 -21 -126 -65 -10 -17
-27 -46 -40 -66 -25 -38 -58 -120 -66 -167 -3 -16 -17 -63 -31 -103 -13 -41
-31 -114 -39 -164 -8 -50 -21 -97 -29 -107 -8 -9 -17 -23 -21 -31 -4 -8 2 -4
13 10 24 29 27 21 6 -19 -8 -16 -12 -31 -8 -34 3 -3 -5 -23 -18 -43 -21 -35
-23 -36 -32 -16 -5 11 -25 28 -43 37 -31 15 -37 15 -69 -1 -55 -26 -120 -89
-145 -141 -19 -40 -36 -56 -102 -98 -86 -54 -163 -136 -203 -215 -13 -26 -37
-60 -53 -76 -37 -38 -89 -171 -73 -187 7 -7 40 -12 82 -11 l69 1 -5 -31 c-3
-17 -10 -62 -16 -101 -5 -38 -17 -78 -26 -87 -12 -13 -14 -29 -9 -64 6 -50 20
-74 42 -74 10 0 12 -9 7 -31 -3 -18 -1 -34 5 -38 7 -4 8 -28 2 -76 -5 -39 -6
-80 -3 -93 7 -31 -15 -107 -38 -128 -11 -9 -19 -24 -19 -34 0 -9 -14 -21 -35
-29 -48 -17 -59 -41 -51 -117 10 -95 -8 -190 -41 -218 -32 -28 -35 -74 -8
-125 9 -18 18 -51 20 -74 15 -157 15 -165 -1 -171 -9 -3 -17 -6 -19 -6 -1 0
-5 18 -9 41 -5 29 -12 43 -26 46 -15 4 -20 14 -20 37 -1 60 -73 175 -103 163
-29 -11 -31 -72 -7 -138 20 -51 21 -63 10 -84 -7 -14 -10 -37 -7 -54 4 -20 0
-45 -13 -73 -11 -24 -20 -63 -20 -87 0 -43 0 -43 -22 -27 -59 41 -62 41 -55 2
3 -20 15 -49 25 -64 24 -33 101 -213 132 -307 37 -113 96 -222 154 -281 79
-82 113 -70 147 53 30 108 26 158 -18 222 -20 29 -38 50 -39 45 -1 -5 -5 -21
-8 -36 -9 -39 -19 -35 -38 16 l-16 44 61 -5 c34 -2 90 -8 124 -14 69 -10 106
-2 122 30 17 30 13 59 -9 81 -25 25 -37 55 -57 135 -7 33 -24 78 -37 100 -20
33 -23 48 -16 85 4 25 15 61 25 80 33 62 35 69 35 100 0 35 31 101 60 130 11
11 20 28 20 38 0 10 7 27 15 39 9 13 15 39 13 60 -1 21 8 85 20 143 12 58 27
130 32 161 7 34 28 85 54 129 24 39 52 96 62 126 10 30 22 54 26 54 4 0 15
-15 24 -32 9 -18 40 -69 67 -112 38 -58 53 -93 58 -133 4 -30 16 -66 26 -80
65 -92 66 -124 10 -201 -19 -26 -54 -83 -77 -126 -44 -84 -44 -88 -30 -256 1
-8 -3 -75 -9 -148 -10 -120 -15 -141 -47 -210 -53 -112 -55 -119 -65 -217 -6
-59 -6 -116 1 -167 10 -74 9 -83 -26 -218 -42 -158 -43 -151 34 -171 25 -7 47
-20 54 -32 27 -51 -17 -243 -98 -425 -30 -69 -131 -203 -147 -197 -16 6 -29
-4 -48 -39 -15 -27 -30 -35 -66 -38 -7 -1 -13 -6 -13 -11 0 -5 -9 -21 -19 -36
-18 -25 -18 -30 -6 -54 13 -25 10 -34 -37 -134 l-51 -108 -2 -155 c-2 -220
-13 -367 -37 -506 l-21 -122 -44 -22 c-24 -12 -42 -24 -39 -27 2 -3 -2 -23
-10 -46 -13 -37 -13 -43 0 -53 31 -22 36 -61 26 -182 -6 -64 -14 -141 -18
-169 -5 -29 -6 -57 -3 -61 14 -21 270 -135 324 -144 75 -13 269 6 312 31 26
14 30 24 33 64 2 34 -3 57 -17 80 -22 36 -188 200 -240 236 -31 22 -33 27 -27
65 4 23 15 48 27 56 14 12 22 34 29 85 11 91 135 419 235 622 42 83 80 175 85
204 18 96 102 207 174 229 23 8 44 23 54 40 14 25 21 28 62 26 59 -3 89 -20
180 -101 41 -37 87 -69 102 -72 15 -3 34 -16 43 -29 24 -37 92 -235 100 -290
8 -58 43 -185 55 -198 4 -4 4 -21 0 -36 -5 -16 -6 -31 -3 -34 3 -3 1 -11 -4
-18 -15 -18 -25 -85 -15 -92 5 -3 7 -27 5 -53 -7 -71 14 -223 33 -244 23 -26
93 -33 177 -19 137 23 187 23 300 1 74 -14 147 -21 233 -21 113 0 126 2 145
21 16 16 20 28 15 52 -3 16 -11 35 -16 42 -5 7 -58 25 -117 40 -60 15 -114 33
-122 39 -15 12 -71 42 -141 77 -97 47 -161 119 -141 157 7 12 3 36 -11 77 -18
54 -20 74 -14 200 4 77 9 154 12 170 3 17 9 96 12 177 4 89 12 152 18 159 17
16 43 5 93 -41 44 -40 71 -46 71 -15 0 22 -35 88 -55 105 -29 24 -35 45 -24
85 6 21 17 45 25 52 8 8 14 23 14 34 0 42 89 17 234 -68 24 -14 82 -17 90 -5
3 5 -30 39 -72 76 -72 65 -194 136 -234 136 -9 0 -20 5 -23 10 -3 6 -19 10
-35 10 -23 0 -30 6 -39 32 -9 24 -14 29 -23 20 -32 -32 -34 -1 -10 131 10 53
32 87 32 48 0 -45 18 -10 22 44 3 37 12 65 26 83 78 97 92 134 92 247 0 49 5
86 12 93 13 13 14 101 3 300 -7 117 -6 132 9 132 17 0 22 -16 30 -97 7 -70 33
-117 104 -186 62 -62 86 -63 55 -4 -10 18 -29 54 -42 79 -22 42 -23 48 -10 77
9 19 21 31 33 31 11 0 34 5 51 11 57 21 285 -47 375 -111 26 -18 35 -20 67
-11 21 6 52 11 70 11 45 0 141 -32 190 -63 38 -24 55 -28 150 -31 164 -7 453
-64 558 -111 28 -12 81 -25 119 -28 38 -4 88 -16 112 -27 31 -16 106 -29 281
-50 260 -33 423 -46 423 -37 0 14 -104 57 -300 126 -113 40 -229 81 -258 91
-30 11 -76 20 -104 20 -28 0 -76 10 -111 24 -35 13 -95 26 -137 30 -129 10
-455 102 -565 159 -32 17 -59 21 -140 22 -106 0 -173 21 -222 67 -20 18 -33
20 -126 19 -132 -3 -318 36 -347 71 -41 49 -11 94 94 142 50 23 84 51 74 62
-3 2 -44 -5 -92 -17 -99 -25 -184 -72 -233 -128 -39 -47 -66 -56 -89 -30 -14
16 -15 24 -6 45 24 50 6 189 -32 249 -20 32 -38 195 -31 273 7 63 5 72 -14 91
-19 19 -21 33 -22 122 0 70 -7 120 -20 161 -10 32 -21 82 -25 111 -4 29 -14
66 -22 82 -8 17 -24 70 -34 118 -17 86 -17 89 1 105 23 21 46 94 38 123 -3 12
1 53 8 91 8 38 15 92 15 120 0 50 0 51 20 33 17 -15 23 -16 50 -5 50 21 60 43
45 99 -14 54 -30 87 -48 98 -31 20 -37 60 -22 141 26 135 17 231 -24 248 -9 3
-54 9 -101 13 l-84 6 -3 90 c-4 109 -14 146 -52 207 -39 61 -73 83 -127 80
l-44 -2 2 38 c2 56 -7 102 -37 175 -14 36 -28 74 -30 84 -8 39 -30 90 -52 120
-13 17 -23 36 -23 41 0 11 -89 95 -116 109 -23 13 -129 25 -137 16z m747
-2262 c-8 -9 -22 12 -17 26 6 15 7 14 13 -3 4 -10 6 -21 4 -23z m-574 -1945
l45 -21 17 -85 c39 -191 33 -313 -18 -361 -13 -12 -24 -29 -24 -37 0 -8 -9
-26 -20 -42 -23 -33 -29 -114 -11 -158 7 -16 11 -51 9 -78 l-3 -49 -60 89
c-52 78 -159 186 -184 186 -4 0 -13 11 -19 25 -7 14 -23 30 -37 35 -14 5 -26
16 -26 25 -6 75 -5 80 32 120 60 65 209 332 209 375 0 13 25 7 90 -24z"/>
<path d="M8770 5950 c-6 -11 -8 -20 -6 -20 3 0 10 9 16 20 6 11 8 20 6 20 -3
0 -10 -9 -16 -20z"/>
<path d="M8778 5925 c-25 -34 -22 -43 3 -11 12 15 20 29 18 31 -2 1 -12 -7
-21 -20z"/>
</g>
</svg>
